{
  "source": "C:\\Users\\Peter\\Desktop\\stuff\\MIUN\\quantitative_research\\video_compression\\videos\\UVG\\Bosphorus_1920x1080_120fps_420_8bit_YUV.y4m",
  "output": "C:\\Users\\Peter\\Desktop\\stuff\\MIUN\\quantitative_research\\video_compression\\compressed_videos\\UVG\\h264\\1.5\\Bosphorus_1920x1080_120fps_420_8bit_YUV_h264.mp4",
  "codec": "h264",
  "ok": "[yuv4mpegpipe @ 0000018035f25ec0] Stream #0: not enough frames to estimate rate; consider increasing probesize\nInput #0, yuv4mpegpipe, from 'C:\\Users\\Peter\\Desktop\\stuff\\MIUN\\quantitative_research\\video_compression\\videos\\UVG\\Bosphorus_1920x1080_120fps_420_8bit_YUV.y4m':\n  Duration: 00:00:05.00, start: 0.000000, bitrate: 2985989 kb/s\n  Stream #0:0: Video: rawvideo (I420 / 0x30323449), yuv420p(progressive), 1920x1080, 120 fps, 120 tbr, 120 tbn\n[out#0/mp4 @ 0000018035f29ac0] Codec AVOption b:a (set bitrate (in bits/s)) has not been used for any stream. The most likely reason is either wrong type (e.g. a video option with no video streams) or that it is a private option of some decoder which was not actually used for any stream.\nStream mapping:\n  Stream #0:0 -> #0:0 (rawvideo (native) -> h264 (libx264))\nPress [q] to stop, [?] for help\n[libx264 @ 0000018035f2cb80] using cpu capabilities: MMX2 SSE2Fast SSSE3 SSE4.2 AVX FMA3 BMI2 AVX2\n[libx264 @ 0000018035f2cb80] profile High, level 5.1, 4:2:0, 8-bit\n[libx264 @ 0000018035f2cb80] 264 - core 165 r3222 b35605a - H.264/MPEG-4 AVC codec - Copyleft 2003-2025 - http://www.videolan.org/x264.html - options: cabac=1 ref=5 deblock=1:0:0 analyse=0x3:0x113 me=hex subme=8 psy=1 psy_rd=1.00:0.00 mixed_ref=1 me_range=16 chroma_me=1 trellis=2 8x8dct=1 cqm=0 deadzone=21,11 fast_pskip=1 chroma_qp_offset=-2 threads=18 lookahead_threads=3 sliced_threads=0 nr=0 decimate=1 interlaced=0 bluray_compat=0 constrained_intra=0 bframes=3 b_pyramid=2 b_adapt=1 b_bias=0 direct=3 weightb=1 open_gop=0 weightp=2 keyint=250 keyint_min=25 scenecut=40 intra_refresh=0 rc_lookahead=50 rc=cbr mbtree=1 bitrate=1500 ratetol=1.0 qcomp=0.60 qpmin=0 qpmax=69 qpstep=4 vbv_maxrate=1500 vbv_bufsize=1500 nal_hrd=none filler=0 ip_ratio=1.40 aq=1:1.00\nOutput #0, mp4, to 'C:\\Users\\Peter\\Desktop\\stuff\\MIUN\\quantitative_research\\video_compression\\compressed_videos\\UVG\\h264\\1.5\\Bosphorus_1920x1080_120fps_420_8bit_YUV_h264.mp4':\n  Metadata:\n    encoder         : Lavf62.3.100\n  Stream #0:0: Video: h264 (avc1 / 0x31637661), yuv420p(tv, progressive), 1920x1080, q=2-31, 1500 kb/s, 120 fps, 15360 tbn\n    Metadata:\n      encoder         : Lavc62.11.100 libx264\n    Side data:\n      cpb: bitrate max/min/avg: 1500000/0/1500000 buffer size: 1500000 vbv_delay: N/A\nframe=    0 fps=0.0 q=0.0 size=       0KiB time=N/A bitrate=N/A speed=N/A elapsed=0:00:00.51    \nframe=    0 fps=0.0 q=0.0 size=       0KiB time=N/A bitrate=N/A speed=N/A elapsed=0:00:01.08    \nframe=    0 fps=0.0 q=0.0 size=       0KiB time=N/A bitrate=N/A speed=N/A elapsed=0:00:01.62    \nframe=   16 fps=7.1 q=48.0 size=       0KiB time=00:00:00.08 bitrate=   4.6kbits/s speed=0.0372x elapsed=0:00:02.24    \nframe=   26 fps=9.0 q=47.0 size=       0KiB time=00:00:00.20 bitrate=   1.9kbits/s speed=0.0692x elapsed=0:00:02.89    \nframe=   46 fps= 13 q=46.0 size=       0KiB time=00:00:00.35 bitrate=   1.1kbits/s speed=0.101x elapsed=0:00:03.45    \nframe=   72 fps= 18 q=46.0 size=       0KiB time=00:00:00.58 bitrate=   0.7kbits/s speed=0.143x elapsed=0:00:04.09    \nframe=   96 fps= 21 q=46.0 size=       0KiB time=00:00:00.78 bitrate=   0.5kbits/s speed=0.168x elapsed=0:00:04.66    \nframe=  116 fps= 22 q=46.0 size=       0KiB time=00:00:00.95 bitrate=   0.4kbits/s speed=0.182x elapsed=0:00:05.21    \nframe=  138 fps= 24 q=46.0 size=       0KiB time=00:00:01.13 bitrate=   0.3kbits/s speed=0.196x elapsed=0:00:05.77    \nframe=  164 fps= 26 q=45.0 size=       0KiB time=00:00:01.31 bitrate=   0.3kbits/s speed=0.206x elapsed=0:00:06.39    \nframe=  178 fps= 26 q=45.0 size=       0KiB time=00:00:01.46 bitrate=   0.3kbits/s speed=0.211x elapsed=0:00:06.93    \nframe=  208 fps= 28 q=46.0 size=     256KiB time=00:00:01.71 bitrate=1221.9kbits/s speed=0.23x elapsed=0:00:07.47    \nframe=  233 fps= 29 q=46.0 size=     256KiB time=00:00:01.91 bitrate=1094.4kbits/s speed=0.237x elapsed=0:00:08.07    \nframe=  238 fps= 27 q=46.0 size=     256KiB time=00:00:01.96 bitrate=1066.5kbits/s speed=0.225x elapsed=0:00:08.74    \nframe=  258 fps= 28 q=46.0 size=     256KiB time=00:00:02.13 bitrate= 983.2kbits/s speed=0.23x elapsed=0:00:09.29    \nframe=  274 fps= 28 q=46.0 size=     256KiB time=00:00:02.26 bitrate= 925.4kbits/s speed=0.23x elapsed=0:00:09.86    \nframe=  292 fps= 28 q=46.0 size=     256KiB time=00:00:02.41 bitrate= 867.9kbits/s speed=0.232x elapsed=0:00:10.40    \nframe=  314 fps= 29 q=46.0 size=     256KiB time=00:00:02.60 bitrate= 806.7kbits/s speed=0.237x elapsed=0:00:10.96    \nframe=  330 fps= 29 q=46.0 size=     256KiB time=00:00:02.73 bitrate= 767.4kbits/s speed=0.238x elapsed=0:00:11.48    \nframe=  354 fps= 29 q=46.0 size=     256KiB time=00:00:02.90 bitrate= 723.3kbits/s speed=0.24x elapsed=0:00:12.07    \nframe=  370 fps= 29 q=46.0 size=     512KiB time=00:00:03.06 bitrate=1367.8kbits/s speed=0.243x elapsed=0:00:12.62    \nframe=  388 fps= 30 q=46.0 size=     512KiB time=00:00:03.20 bitrate=1310.8kbits/s speed=0.243x elapsed=0:00:13.14    \nframe=  406 fps= 30 q=46.0 size=     512KiB time=00:00:03.36 bitrate=1245.9kbits/s speed=0.246x elapsed=0:00:13.69    \nframe=  426 fps= 30 q=46.0 size=     512KiB time=00:00:03.53 bitrate=1187.2kbits/s speed=0.247x elapsed=0:00:14.30    \nframe=  446 fps= 30 q=46.0 size=     512KiB time=00:00:03.70 bitrate=1133.7kbits/s speed=0.249x elapsed=0:00:14.83    \nframe=  464 fps= 30 q=46.0 size=     512KiB time=00:00:03.85 bitrate=1089.5kbits/s speed=0.251x elapsed=0:00:15.36    \nframe=  480 fps= 30 q=46.0 size=     512KiB time=00:00:03.98 bitrate=1053.1kbits/s speed=0.25x elapsed=0:00:15.93    \nframe=  482 fps= 29 q=46.0 size=     512KiB time=00:00:04.00 bitrate=1048.7kbits/s speed=0.243x elapsed=0:00:16.46    \nframe=  496 fps= 29 q=46.0 size=     512KiB time=00:00:04.11 bitrate=1019.0kbits/s speed=0.242x elapsed=0:00:16.97    \nframe=  516 fps= 29 q=46.0 size=     512KiB time=00:00:04.28 bitrate= 979.3kbits/s speed=0.244x elapsed=0:00:17.53    \nframe=  538 fps= 30 q=46.0 size=     768KiB time=00:00:04.46 bitrate=1408.6kbits/s speed=0.247x elapsed=0:00:18.06    \nframe=  538 fps= 29 q=46.0 size=     768KiB time=00:00:04.46 bitrate=1408.6kbits/s speed=0.24x elapsed=0:00:18.60    \nframe=  566 fps= 30 q=46.0 size=     768KiB time=00:00:04.70 bitrate=1338.7kbits/s speed=0.245x elapsed=0:00:19.15    \n[mp4 @ 0000018035f29bc0] Starting second pass: moving the moov atom to the beginning of the file\n[out#0/mp4 @ 0000018035f29ac0] video:889KiB audio:0KiB subtitle:0KiB other streams:0KiB global headers:0KiB muxing overhead: 0.883615%\nframe=  600 fps= 30 q=-1.0 Lsize=     897KiB time=00:00:04.98 bitrate=1474.2kbits/s speed=0.246x elapsed=0:00:20.27    \n[libx264 @ 0000018035f2cb80] frame I:3     Avg QP:40.53  size: 14572\n[libx264 @ 0000018035f2cb80] frame P:151   Avg QP:41.36  size:  2865\n[libx264 @ 0000018035f2cb80] frame B:446   Avg QP:40.67  size:   971\n[libx264 @ 0000018035f2cb80] consecutive B-frames:  0.8%  0.0%  0.5% 98.7%\n[libx264 @ 0000018035f2cb80] mb I  I16..4: 42.8% 56.5%  0.7%\n[libx264 @ 0000018035f2cb80] mb P  I16..4:  0.9%  0.2%  0.0%  P16..4: 16.3%  0.6%  1.0%  0.0%  0.0%    skip:81.0%\n[libx264 @ 0000018035f2cb80] mb B  I16..4:  0.0%  0.0%  0.0%  B16..8: 18.1%  0.0%  0.0%  direct: 0.0%  skip:81.9%  L0:22.0% L1:77.9% BI: 0.0%\n[libx264 @ 0000018035f2cb80] 8x8 transform intra:43.4% inter:97.0%\n[libx264 @ 0000018035f2cb80] direct mvs  spatial:97.8% temporal:2.2%\n[libx264 @ 0000018035f2cb80] coded y,uvDC,uvAC intra: 10.0% 15.3% 1.1% inter: 0.3% 0.3% 0.0%\n[libx264 @ 0000018035f2cb80] i16 v,h,dc,p: 14% 65%  4% 18%\n[libx264 @ 0000018035f2cb80] i8 v,h,dc,ddl,ddr,vr,hd,vl,hu: 12% 22% 33%  3%  6%  3%  8%  3% 10%\n[libx264 @ 0000018035f2cb80] i4 v,h,dc,ddl,ddr,vr,hd,vl,hu:  6% 16% 12%  6% 12%  9% 12%  8% 20%\n[libx264 @ 0000018035f2cb80] i8c dc,h,v,p: 60% 36%  3%  1%\n[libx264 @ 0000018035f2cb80] Weighted P-Frames: Y:0.0% UV:0.0%\n[libx264 @ 0000018035f2cb80] ref P L0: 56.2%  8.3% 23.6%  4.4%  7.5%\n[libx264 @ 0000018035f2cb80] ref B L0: 90.2%  7.9%  1.4%  0.5%\n[libx264 @ 0000018035f2cb80] ref B L1: 95.2%  4.8%\n[libx264 @ 0000018035f2cb80] kb/s:1455.16\n",
  "seconds": 20.790181398391724,
  "probe_out": {}
}